<svg width="49" height="73" viewBox="0 0 49 73" fill="none" xmlns="http://www.w3.org/2000/svg">
<path fill-rule="evenodd" clip-rule="evenodd" d="M8.11452 3.86437C9.3517 0.877578 12.7759 -0.540775 15.7627 0.696398C18.7495 1.93357 20.1678 5.35777 18.9307 8.34457L16.6906 13.7526C22.6642 16.227 25.5009 23.0754 23.0265 29.049C20.5522 35.0226 13.7038 37.8593 7.73018 35.3849C1.75659 32.9106 -1.08011 26.0622 1.39423 20.0886C1.57202 19.6594 1.77239 19.2464 1.99339 18.8503C2.06548 18.5393 2.16406 18.2301 2.29027 17.9254L8.11452 3.86437ZM12.2073 19.626C14.7936 19.626 16.8902 21.7226 16.8902 24.3089C16.8902 26.8952 14.7936 28.9918 12.2073 28.9918C9.62101 28.9918 7.52439 26.8952 7.52439 24.3089C7.52439 21.7226 9.62101 19.626 12.2073 19.626Z" fill="#212C25"/>
<circle cx="35.6272" cy="24.5719" r="11.7073" fill="#212C25"/>
<circle cx="12.2073" cy="47.9865" r="11.7073" fill="#212C25"/>
<path fill-rule="evenodd" clip-rule="evenodd" d="M31.5286 68.694C32.7658 71.6808 36.19 73.0991 39.1768 71.862C42.1636 70.6248 43.5819 67.2006 42.3447 64.2138L40.1046 58.8057C46.0782 56.3314 48.9149 49.483 46.4406 43.5094C43.9662 37.5358 37.1178 34.6991 31.1442 37.1734C25.1707 39.6477 22.3339 46.4962 24.8083 52.4698C24.9861 52.899 25.1864 53.312 25.4075 53.708C25.4795 54.019 25.5781 54.3283 25.7043 54.633L31.5286 68.694ZM35.6214 52.9324C38.2077 52.9324 40.3043 50.8358 40.3043 48.2494C40.3043 45.6631 38.2077 43.5665 35.6214 43.5665C33.0351 43.5665 30.9385 45.6631 30.9385 48.2494C30.9385 50.8358 33.0351 52.9324 35.6214 52.9324Z" fill="#212C25"/>
</svg>
