<svg width="820" height="176" viewBox="0 0 820 176" fill="none" xmlns="http://www.w3.org/2000/svg">
<path d="M25.1516 25.5364V79.0411H39.1303C43.4686 79.0411 46.9231 78.4788 49.4939 77.354C52.0647 76.0686 54.0731 74.3012 55.5192 72.0518C56.8046 69.8023 57.6883 67.0708 58.1703 63.8573C58.6523 60.4832 58.8933 56.627 58.8933 52.2888C58.8933 47.9505 58.6523 44.1747 58.1703 40.9612C57.6883 37.587 56.7242 34.6949 55.2782 32.2847C52.2253 27.7858 46.441 25.5364 37.9253 25.5364H25.1516ZM0.568359 174V2.39921H40.0944C69.0159 2.39921 83.4766 19.1897 83.4766 52.7708C83.4766 62.8933 81.8698 71.4894 78.6563 78.5591C75.6035 85.6288 70.1406 91.3328 62.2675 95.671L88.7789 174H62.7495L39.8534 100.732H25.1516V174H0.568359Z" fill="black"/>
<path d="M101.741 174V51.8067H126.324V174H101.741ZM101.741 26.9825V2.39921H126.324V26.9825H101.741Z" fill="black"/>
<path d="M172.489 138.812C172.489 142.668 173.534 145.641 175.622 147.73C177.872 149.818 180.844 150.863 184.54 150.863C189.199 150.863 192.252 149.497 193.698 146.766C195.305 144.034 196.269 141.303 196.59 138.571H221.174C221.174 149.336 217.88 158.013 211.292 164.6C208.079 167.975 204.223 170.626 199.724 172.554C195.225 174.482 190.163 175.446 184.54 175.446C176.827 175.446 170.24 173.839 164.777 170.626C159.475 167.412 155.377 163.154 152.485 157.852C150.718 154.639 149.513 150.943 148.87 146.766C148.227 142.588 147.906 138.009 147.906 133.028V92.7788C147.906 87.7979 148.227 83.2187 148.87 79.0411C149.513 74.8636 150.718 71.1681 152.485 67.9546C155.377 62.6523 159.475 58.3944 164.777 55.1809C170.24 51.9674 176.827 50.3607 184.54 50.3607C190.163 50.3607 195.225 51.3247 199.724 53.2528C204.383 55.1809 208.32 57.832 211.533 61.2062C217.96 68.4366 221.174 77.8361 221.174 89.4047H196.59C196.59 84.4237 195.466 80.8085 193.216 78.5591C191.128 76.149 188.235 74.9439 184.54 74.9439C180.844 74.9439 177.872 76.149 175.622 78.5591C173.534 80.8085 172.489 84.2631 172.489 88.9226V138.812Z" fill="black"/>
<path d="M306.761 122.182H258.077V138.812C258.077 142.668 259.121 145.641 261.21 147.73C263.459 149.818 266.432 150.863 270.127 150.863C274.787 150.863 277.84 149.497 279.286 146.766C280.893 144.034 281.857 141.303 282.178 138.571H306.761C306.761 149.336 303.467 158.013 296.88 164.6C293.666 167.975 289.81 170.626 285.311 172.554C280.812 174.482 275.751 175.446 270.127 175.446C262.415 175.446 255.827 173.839 250.364 170.626C245.062 167.412 240.965 163.154 238.073 157.852C236.305 154.639 235.1 150.943 234.458 146.766C233.815 142.588 233.494 138.009 233.494 133.028V92.7788C233.494 87.7979 233.815 83.2187 234.458 79.0411C235.1 74.8636 236.305 71.1681 238.073 67.9546C240.965 62.6523 245.062 58.3944 250.364 55.1809C255.827 51.9674 262.415 50.3607 270.127 50.3607C275.751 50.3607 280.812 51.3247 285.311 53.2528C289.971 55.1809 293.907 57.832 297.121 61.2062C303.548 68.4366 306.761 77.5147 306.761 88.4406V122.182ZM258.077 102.901H282.178V88.9226C282.178 84.2631 281.053 80.8085 278.804 78.5591C276.715 76.149 273.823 74.9439 270.127 74.9439C266.432 74.9439 263.459 76.149 261.21 78.5591C259.121 80.8085 258.077 84.2631 258.077 88.9226V102.901Z" fill="black"/>
<path d="M450.565 51.8067H425.981V46.2634C425.981 40.6398 424.616 35.8196 421.884 31.8027C419.313 27.6252 414.895 25.5364 408.629 25.5364C405.254 25.5364 402.523 26.1791 400.434 27.4645C398.345 28.7499 396.658 30.3566 395.373 32.2847C394.087 34.3735 393.204 36.7836 392.722 39.5151C392.24 42.0859 391.999 44.8174 391.999 47.7095C391.999 51.0837 392.079 53.8955 392.24 56.145C392.561 58.3944 393.204 60.4028 394.168 62.1703C395.132 63.9377 396.498 65.4641 398.265 66.7495C400.193 68.0349 402.764 69.3203 405.977 70.6057L424.776 78.0771C430.239 80.1658 434.658 82.6563 438.032 85.5485C441.406 88.2799 444.057 91.4934 445.985 95.1889C447.753 99.0451 448.958 103.464 449.601 108.445C450.243 113.265 450.565 118.808 450.565 125.074C450.565 132.305 449.842 139.053 448.396 145.32C446.95 151.425 444.62 156.647 441.406 160.985C438.032 165.484 433.614 169.019 428.151 171.59C422.688 174.161 416.02 175.446 408.147 175.446C402.202 175.446 396.658 174.402 391.517 172.313C386.375 170.224 381.957 167.332 378.261 163.636C374.565 159.941 371.593 155.683 369.344 150.863C367.255 145.882 366.21 140.499 366.21 134.715V125.557H390.794V133.269C390.794 137.768 392.079 141.865 394.65 145.561C397.381 149.095 401.88 150.863 408.147 150.863C412.324 150.863 415.538 150.3 417.787 149.176C420.197 147.89 422.045 146.123 423.33 143.873C424.616 141.624 425.339 138.973 425.499 135.92C425.821 132.707 425.981 129.172 425.981 125.315C425.981 120.817 425.821 117.121 425.499 114.229C425.178 111.337 424.535 109.007 423.571 107.24C422.447 105.472 420.92 104.026 418.992 102.901C417.225 101.777 414.815 100.572 411.762 99.2862L394.168 92.0558C383.563 87.7176 376.413 82.0136 372.718 74.9439C369.183 67.7135 367.415 58.7158 367.415 47.9505C367.415 41.5235 368.299 35.4179 370.067 29.6336C371.834 23.8493 374.485 18.8684 378.02 14.6908C381.394 10.5133 385.652 7.21945 390.794 4.80933C396.096 2.23853 402.362 0.953125 409.593 0.953125C415.698 0.953125 421.242 2.07785 426.222 4.3273C431.364 6.57675 435.783 9.54923 439.478 13.2448C446.869 20.9572 450.565 29.7943 450.565 39.7561V51.8067Z" fill="black"/>
<path d="M467.496 51.8067V14.6908H492.079V51.8067H507.263V71.0877H492.079V138.812C492.079 141.704 492.32 143.954 492.802 145.561C493.445 147.167 494.409 148.372 495.694 149.176C496.98 149.979 498.506 150.461 500.273 150.622C502.202 150.782 504.531 150.863 507.263 150.863V174H497.14C491.517 174 486.777 173.116 482.921 171.349C479.225 169.581 476.253 167.332 474.003 164.6C471.754 161.869 470.067 158.816 468.942 155.442C467.978 151.907 467.496 148.533 467.496 145.32V71.0877H455.204V51.8067H467.496Z" fill="black"/>
<path d="M590.196 51.8067V174H565.612V162.19H565.13C562.559 166.047 559.426 169.26 555.731 171.831C552.196 174.241 547.617 175.446 541.993 175.446C538.94 175.446 535.887 174.964 532.835 174C529.782 172.875 527.05 171.108 524.64 168.698C522.23 166.288 520.302 163.235 518.856 159.539C517.41 155.683 516.687 151.023 516.687 145.561V51.8067H541.27V136.402C541.27 140.901 542.314 144.436 544.403 147.007C546.492 149.577 549.464 150.863 553.321 150.863C557.98 150.863 561.194 149.417 562.961 146.525C564.729 143.632 565.612 139.455 565.612 133.992V51.8067H590.196Z" fill="black"/>
<path d="M634.945 134.233C634.945 139.214 635.909 143.231 637.837 146.284C639.765 149.336 642.818 150.863 646.995 150.863C650.691 150.863 653.663 149.497 655.913 146.766C658.162 143.873 659.287 140.178 659.287 135.679V88.1996C659.287 84.3434 658.082 81.2102 655.672 78.8001C653.422 76.2293 650.53 74.9439 646.995 74.9439C642.336 74.9439 639.122 76.39 637.355 79.2821C635.748 82.1743 634.945 85.5485 634.945 89.4047V134.233ZM659.287 174V162.913C657.68 164.681 656.154 166.368 654.708 167.975C653.262 169.421 651.655 170.706 649.888 171.831C648.12 172.956 646.112 173.839 643.862 174.482C641.613 175.125 638.962 175.446 635.909 175.446C625.626 175.446 618.476 171.59 614.459 163.877C613.013 161.146 611.968 157.772 611.326 153.755C610.683 149.738 610.362 144.355 610.362 137.607V91.0917C610.362 82.2546 610.603 75.7473 611.085 71.5697C612.049 63.536 615.824 57.5107 622.412 53.4938C625.465 51.405 630.044 50.3607 636.15 50.3607C640.97 50.3607 645.228 51.4854 648.924 53.7348C652.78 55.8236 656.074 58.8764 658.805 62.8933H659.287V2.39921H683.87V174H659.287Z" fill="black"/>
<path d="M704.036 174V51.8067H728.62V174H704.036ZM704.036 26.9825V2.39921H728.62V26.9825H704.036Z" fill="black"/>
<path d="M746.586 92.7788C746.586 87.7979 746.908 83.2187 747.55 79.0411C748.193 74.8636 749.398 71.1681 751.165 67.9546C754.058 62.6523 758.155 58.3944 763.457 55.1809C768.92 51.9674 775.508 50.3607 783.22 50.3607C790.932 50.3607 797.44 51.9674 802.742 55.1809C808.205 58.3944 812.383 62.6523 815.275 67.9546C817.042 71.1681 818.247 74.8636 818.89 79.0411C819.533 83.2187 819.854 87.7979 819.854 92.7788V133.028C819.854 138.009 819.533 142.588 818.89 146.766C818.247 150.943 817.042 154.639 815.275 157.852C812.383 163.154 808.205 167.412 802.742 170.626C797.44 173.839 790.932 175.446 783.22 175.446C775.508 175.446 768.92 173.839 763.457 170.626C758.155 167.412 754.058 163.154 751.165 157.852C749.398 154.639 748.193 150.943 747.55 146.766C746.908 142.588 746.586 138.009 746.586 133.028V92.7788ZM771.169 136.884C771.169 141.544 772.214 145.078 774.303 147.489C776.552 149.738 779.525 150.863 783.22 150.863C786.916 150.863 789.808 149.738 791.896 147.489C794.146 145.078 795.271 141.544 795.271 136.884V88.9226C795.271 84.2631 794.146 80.8085 791.896 78.5591C789.808 76.149 786.916 74.9439 783.22 74.9439C779.525 74.9439 776.552 76.149 774.303 78.5591C772.214 80.8085 771.169 84.2631 771.169 88.9226V136.884Z" fill="black"/>
</svg>
